<svg width="70" height="70" viewBox="0 0 70 70" fill="none" xmlns="http://www.w3.org/2000/svg">
<g filter="url(#filter0_d)">
<rect x="5" y="1" width="60" height="60" fill="#C4C4C4"/>
<rect x="5" y="1" width="60" height="60" stroke="black" stroke-opacity="0.15"/>
</g>
<path d="M37.182 18.8914V21.9969H37.0063C35.5297 21.9969 34.3148 22.3523 33.3617 23.0633C32.4164 23.7664 31.8344 24.7469 31.6156 26.0047C32.5063 25.1297 33.6313 24.6922 34.9906 24.6922C36.4672 24.6922 37.643 25.2312 38.518 26.3094C39.393 27.3875 39.8305 28.8016 39.8305 30.5516C39.8305 31.6375 39.5727 32.6336 39.057 33.5398C38.5492 34.4461 37.8344 35.157 36.9125 35.6727C35.9984 36.1805 34.9828 36.4344 33.8656 36.4344C32.6547 36.4344 31.5727 36.1609 30.6195 35.6141C29.6664 35.0594 28.9242 34.2703 28.393 33.2469C27.8617 32.2234 27.5883 31.0437 27.5727 29.7078V28.1258C27.5727 26.368 27.9477 24.7898 28.6977 23.3914C29.4555 21.9852 30.5336 20.8836 31.932 20.0867C33.3305 19.2898 34.8813 18.8914 36.5844 18.8914H37.182ZM33.6195 27.7156C33.0961 27.7156 32.6586 27.8367 32.307 28.0789C31.9555 28.3211 31.6938 28.618 31.5219 28.9695V30.1531C31.5219 32.3094 32.268 33.3875 33.7602 33.3875C34.3617 33.3875 34.8617 33.118 35.2602 32.5789C35.6664 32.0398 35.8695 31.3641 35.8695 30.5516C35.8695 29.7156 35.6625 29.0359 35.2484 28.5125C34.8422 27.9812 34.2992 27.7156 33.6195 27.7156Z" fill="black"/>
<defs>
<filter id="filter0_d" x="0.5" y="0.5" width="69" height="69" filterUnits="userSpaceOnUse" color-interpolation-filters="sRGB">
<feFlood flood-opacity="0" result="BackgroundImageFix"/>
<feColorMatrix in="SourceAlpha" type="matrix" values="0 0 0 0 0 0 0 0 0 0 0 0 0 0 0 0 0 0 127 0"/>
<feOffset dy="4"/>
<feGaussianBlur stdDeviation="2"/>
<feColorMatrix type="matrix" values="0 0 0 0 0 0 0 0 0 0 0 0 0 0 0 0 0 0 0.25 0"/>
<feBlend mode="normal" in2="BackgroundImageFix" result="effect1_dropShadow"/>
<feBlend mode="normal" in="SourceGraphic" in2="effect1_dropShadow" result="shape"/>
</filter>
</defs>
</svg>
